<svg width="24" height="24" viewBox="0 0 24 24" fill="none" xmlns="http://www.w3.org/2000/svg">
    <path fill-rule="evenodd" clip-rule="evenodd"
        d="M12.9593 21.0461C12.6409 21.3618 12.3204 21.6796 12 22C11.6796 21.6796 11.3591 21.3618 11.0407 21.0461C7.38479 17.4208 4 14.0643 4 10C4 5.58172 7.58172 2 12 2C16.4183 2 20 5.58172 20 10C20 14.0643 16.6152 17.4208 12.9593 21.0461ZM15 10C15 11.6569 13.6569 13 12 13C10.3431 13 9 11.6569 9 10C9 8.34315 10.3431 7 12 7C13.6569 7 15 8.34315 15 10Z"
        fill="currentColor" />
</svg>