<?xml version="1.0" encoding="utf-8"?><svg xmlns="http://www.w3.org/2000/svg" xmlns:xlink="http://www.w3.org/1999/xlink"><symbol fill="none" viewBox="0 0 24 24" id="award-icon" xmlns="http://www.w3.org/2000/svg"><path d="M7.869 15.46L7 22l4.588-2.753c.15-.09.225-.135.305-.152a.5.5 0 01.214 0c.08.017.155.062.305.152L17 22l-.868-6.543m.294-11.208c.154.373.45.67.824.825l1.309.542a1.525 1.525 0 01.825 1.992l-.542 1.308a1.522 1.522 0 000 1.168l.542 1.307a1.525 1.525 0 01-.826 1.993l-1.308.542c-.373.154-.67.45-.825.824l-.542 1.309a1.524 1.524 0 01-1.992.825l-1.308-.542a1.525 1.525 0 00-1.166 0l-1.31.542a1.524 1.524 0 01-1.99-.824l-.542-1.31a1.524 1.524 0 00-.824-.825l-1.31-.542a1.524 1.524 0 01-.825-1.991l.542-1.308a1.525 1.525 0 000-1.167l-.542-1.31a1.525 1.525 0 01.826-1.992l1.307-.542c.374-.154.67-.45.825-.823l.543-1.309a1.524 1.524 0 011.991-.825l1.308.542c.374.154.793.154 1.167-.001l1.31-.54a1.525 1.525 0 011.99.825l.543 1.31v-.003z" stroke="currentColor" stroke-width="1.5" stroke-linecap="round" stroke-linejoin="round"/></symbol><symbol fill="none" viewBox="0 0 24 24" id="certificate-icon" xmlns="http://www.w3.org/2000/svg"><path d="M6.5 20H5a2 2 0 01-2-2V4a2 2 0 012-2h14a2 2 0 012 2v14a2 2 0 01-2 2h-1.5M12 19a3 3 0 100-6 3 3 0 000 6zm0 0h.021L8.83 22.193 6 19.364l3.02-3.02M12 19l3.193 3.193 2.828-2.829-3.02-3.02M9 6h6M7 9.5h10" stroke="currentColor" stroke-width="1.5" stroke-linecap="round" stroke-linejoin="round"/></symbol><symbol fill="none" viewBox="0 0 24 24" id="check-icon" xmlns="http://www.w3.org/2000/svg"><path d="M20 6L9 17l-5-5" stroke="currentColor" stroke-width="1.5" stroke-linecap="round" stroke-linejoin="round"/></symbol><symbol fill="none" viewBox="0 0 24 24" id="chevron-down-icon" xmlns="http://www.w3.org/2000/svg"><path d="M6 9l6 6 6-6" stroke="currentColor" stroke-width="1.5" stroke-linecap="round" stroke-linejoin="round"/></symbol><symbol fill="none" viewBox="0 0 24 24" id="clipboard-check-icon" xmlns="http://www.w3.org/2000/svg"><path d="M16 4c.93 0 1.395 0 1.776.102a3 3 0 012.122 2.122C20 6.605 20 7.07 20 8v9.2c0 1.68 0 2.52-.327 3.162a3 3 0 01-1.311 1.311C17.72 22 16.88 22 15.2 22H8.8c-1.68 0-2.52 0-3.162-.327a3 3 0 01-1.311-1.311C4 19.72 4 18.88 4 17.2V8c0-.93 0-1.395.102-1.776a3 3 0 012.122-2.122C6.605 4 7.07 4 8 4m1 11l2 2 4.5-4.5M9.6 6h4.8c.56 0 .84 0 1.054-.109a1 1 0 00.437-.437C16 5.24 16 4.96 16 4.4v-.8c0-.56 0-.84-.109-1.054a1 1 0 00-.437-.437C15.24 2 14.96 2 14.4 2H9.6c-.56 0-.84 0-1.054.109a1 1 0 00-.437.437C8 2.76 8 3.04 8 3.6v.8c0 .56 0 .84.109 1.054a1 1 0 00.437.437C8.76 6 9.04 6 9.6 6z" stroke="currentColor" stroke-width="1.5" stroke-linecap="round" stroke-linejoin="round"/></symbol><symbol fill="none" viewBox="0 0 24 24" id="clock-icon" xmlns="http://www.w3.org/2000/svg"><path d="M12 6v6l4 2m6-2c0 5.523-4.477 10-10 10S2 17.523 2 12 6.477 2 12 2s10 4.477 10 10z" stroke="currentColor" stroke-width="1.5" stroke-linecap="round" stroke-linejoin="round"/></symbol><symbol fill="none" viewBox="0 0 24 24" id="clock-rewind-icon" xmlns="http://www.w3.org/2000/svg"><path d="M22.7 13.5l-2-2-2 2M21 12a9 9 0 11-1.245-4.57M12 7v5l3 2" stroke="currentColor" stroke-width="1.5" stroke-linecap="round" stroke-linejoin="round"/></symbol><symbol fill="none" viewBox="0 0 24 24" id="close-icon" xmlns="http://www.w3.org/2000/svg"><path d="M18 6L6 18M6 6l12 12" stroke="currentColor" stroke-width="1.5" stroke-linecap="round" stroke-linejoin="round"/></symbol><symbol fill="none" viewBox="0 0 24 24" id="file-check-icon" xmlns="http://www.w3.org/2000/svg"><path d="M14 2.27V6.4c0 .56 0 .84.109 1.054a1 1 0 00.437.437c.214.11.494.11 1.054.11h4.13M9 16l2 2 4.5-4.5M14 2H8.8c-1.68 0-2.52 0-3.162.327a3 3 0 00-1.311 1.311C4 4.28 4 5.12 4 6.8v10.4c0 1.68 0 2.52.327 3.162a3 3 0 001.311 1.311C6.28 22 7.12 22 8.8 22h6.4c1.68 0 2.52 0 3.162-.327a3 3 0 001.311-1.311C20 19.72 20 18.88 20 17.2V8l-6-6z" stroke="currentColor" stroke-width="1.5" stroke-linecap="round" stroke-linejoin="round"/></symbol><symbol fill="none" viewBox="0 0 24 24" id="gift-icon" xmlns="http://www.w3.org/2000/svg"><path d="M12 7H7.5a2.5 2.5 0 110-5C11 2 12 7 12 7zm0 0h4.5a2.5 2.5 0 000-5C13 2 12 7 12 7zm0 0v15M2 14h20M2 10.2v8.6c0 1.12 0 1.68.218 2.108a2 2 0 00.874.874C3.52 22 4.08 22 5.2 22h13.6c1.12 0 1.68 0 2.108-.218a2 2 0 00.874-.874C22 20.48 22 19.92 22 18.8v-8.6c0-1.12 0-1.68-.218-2.108a2 2 0 00-.874-.874C20.48 7 19.92 7 18.8 7H5.2c-1.12 0-1.68 0-2.108.218a2 2 0 00-.874.874C2 8.52 2 9.08 2 10.2z" stroke="currentColor" stroke-width="1.5" stroke-linecap="round" stroke-linejoin="round"/></symbol><symbol fill="none" viewBox="0 0 24 24" id="marker-pin-fill-icon" xmlns="http://www.w3.org/2000/svg"><path fill-rule="evenodd" clip-rule="evenodd" d="M12.96 21.046c-.32.316-.64.634-.96.954-.32-.32-.64-.638-.96-.954C7.386 17.421 4 14.064 4 10a8 8 0 1116 0c0 4.064-3.385 7.42-7.04 11.046zM15 10a3 3 0 11-6 0 3 3 0 016 0z" fill="currentColor"/></symbol><symbol fill="none" viewBox="0 0 24 24" id="marker-pin-icon" xmlns="http://www.w3.org/2000/svg"><path d="M12 13a3 3 0 100-6 3 3 0 000 6z" stroke="currentColor" stroke-width="1.5" stroke-linecap="round" stroke-linejoin="round"/><path d="M12 22c4-4 8-7.582 8-12a8 8 0 10-16 0c0 4.418 4 8 8 12z" stroke="currentColor" stroke-width="1.5" stroke-linecap="round" stroke-linejoin="round"/></symbol><symbol fill="none" viewBox="0 0 24 24" id="phone-call-icon" xmlns="http://www.w3.org/2000/svg"><path d="M14.05 6A5 5 0 0118 9.95M14.05 2A9 9 0 0122 9.94m-11.773 3.923a14.604 14.604 0 01-2.847-4.01 1.698 1.698 0 01-.113-.266 1.046 1.046 0 01.147-.862c.048-.067.105-.124.22-.238.35-.35.524-.524.638-.7a2 2 0 000-2.18c-.114-.176-.289-.351-.638-.7l-.195-.196c-.532-.531-.797-.797-1.083-.941a2 2 0 00-1.805 0c-.285.144-.551.41-1.083.941l-.157.158c-.53.53-.795.794-.997 1.154-.224.4-.386 1.02-.384 1.479 0 .413.081.695.241 1.26a19.038 19.038 0 004.874 8.283 19.039 19.039 0 008.283 4.873c.565.16.847.24 1.26.242a3.377 3.377 0 001.478-.384c.36-.203.625-.468 1.155-.997l.157-.158c.532-.531.797-.797.942-1.082a2 2 0 000-1.806c-.145-.285-.41-.55-.942-1.082l-.195-.195c-.35-.35-.524-.524-.7-.639a2 2 0 00-2.18 0c-.176.114-.35.29-.7.639-.115.114-.172.171-.239.22-.237.17-.581.228-.862.146a1.695 1.695 0 01-.266-.113 14.605 14.605 0 01-4.01-2.846z" stroke="currentColor" stroke-width="1.5" stroke-linecap="round" stroke-linejoin="round"/></symbol><symbol fill="none" viewBox="0 0 24 24" id="phone-incoming-icon" xmlns="http://www.w3.org/2000/svg"><path d="M15 4v5m0 0h5m-5 0l6-6M10.227 13.863a14.604 14.604 0 01-2.847-4.01 1.698 1.698 0 01-.113-.266 1.046 1.046 0 01.147-.862c.048-.067.105-.124.22-.238.35-.35.524-.524.638-.7a2 2 0 000-2.18c-.114-.176-.289-.351-.638-.7l-.195-.196c-.532-.531-.797-.797-1.083-.941a2 2 0 00-1.805 0c-.285.144-.551.41-1.083.941l-.157.158c-.53.53-.795.794-.997 1.154-.224.4-.386 1.02-.384 1.479 0 .413.081.695.241 1.26a19.038 19.038 0 004.874 8.283 19.039 19.039 0 008.283 4.873c.565.16.847.24 1.26.242a3.377 3.377 0 001.478-.384c.36-.203.625-.468 1.155-.997l.157-.158c.532-.531.797-.797.942-1.082a2 2 0 000-1.806c-.145-.285-.41-.55-.942-1.082l-.195-.195c-.35-.35-.524-.524-.7-.639a2 2 0 00-2.18 0c-.176.114-.35.29-.7.639-.115.114-.172.171-.239.22-.237.17-.581.228-.862.146a1.695 1.695 0 01-.266-.113 14.605 14.605 0 01-4.01-2.846z" stroke="currentColor" stroke-width="1.5" stroke-linecap="round" stroke-linejoin="round"/></symbol><symbol fill="none" viewBox="0 0 24 24" id="search-lg-icon" xmlns="http://www.w3.org/2000/svg"><path d="M21 21l-3.5-3.5m2.5-6a8.5 8.5 0 11-17 0 8.5 8.5 0 0117 0z" stroke="currentColor" stroke-width="1.5" stroke-linecap="round" stroke-linejoin="round"/></symbol><symbol fill="none" viewBox="0 0 24 24" id="settings-icon" xmlns="http://www.w3.org/2000/svg"><path d="M12 15a3 3 0 100-6 3 3 0 000 6z" stroke="currentColor" stroke-width="1.5" stroke-linecap="round" stroke-linejoin="round"/><path d="M18.727 14.727a1.5 1.5 0 00.3 1.655l.055.054a1.816 1.816 0 010 2.573 1.818 1.818 0 01-2.573 0l-.055-.055a1.5 1.5 0 00-1.654-.3 1.5 1.5 0 00-.91 1.373v.155a1.818 1.818 0 11-3.636 0V20.1a1.5 1.5 0 00-.981-1.373 1.5 1.5 0 00-1.655.3l-.054.055a1.818 1.818 0 01-3.106-1.287 1.818 1.818 0 01.533-1.286l.054-.055a1.5 1.5 0 00.3-1.654 1.5 1.5 0 00-1.372-.91h-.155a1.818 1.818 0 110-3.636H3.9a1.5 1.5 0 001.373-.981 1.5 1.5 0 00-.3-1.655l-.055-.054A1.818 1.818 0 117.491 4.99l.054.054a1.5 1.5 0 001.655.3h.073a1.5 1.5 0 00.909-1.372v-.155a1.818 1.818 0 013.636 0V3.9a1.499 1.499 0 00.91 1.373 1.5 1.5 0 001.654-.3l.054-.055a1.817 1.817 0 012.573 0 1.819 1.819 0 010 2.573l-.055.054a1.5 1.5 0 00-.3 1.655v.073a1.5 1.5 0 001.373.909h.155a1.818 1.818 0 010 3.636H20.1a1.499 1.499 0 00-1.373.91z" stroke="currentColor" stroke-width="1.5" stroke-linecap="round" stroke-linejoin="round"/></symbol><symbol fill="none" viewBox="0 0 24 24" id="shield-tick-icon" xmlns="http://www.w3.org/2000/svg"><path d="M9 11.5l2 2L15.5 9m4.5 3c0 4.908-5.354 8.478-7.302 9.615-.221.129-.332.194-.488.227a1.137 1.137 0 01-.42 0c-.156-.033-.267-.098-.488-.227C9.354 20.478 4 16.908 4 12V7.218c0-.8 0-1.2.13-1.543a2 2 0 01.548-.79c.276-.243.65-.383 1.398-.664l5.362-2.01c.208-.078.312-.117.419-.133a1 1 0 01.286 0c.107.016.21.055.419.133l5.362 2.01c.748.281 1.123.421 1.398.665a2 2 0 01.547.789c.131.343.131.743.131 1.543V12z" stroke="currentColor" stroke-width="1.5" stroke-linecap="round" stroke-linejoin="round"/></symbol><symbol fill="none" viewBox="0 0 24 24" id="speedometer-icon" xmlns="http://www.w3.org/2000/svg"><path d="M17.745 16a7.026 7.026 0 001.094-5.5M6.255 16a7 7 0 016.982-10.891M16.5 7.5L12 12m10 0c0 5.523-4.477 10-10 10S2 17.523 2 12 6.477 2 12 2s10 4.477 10 10zm-9 0a1 1 0 11-2 0 1 1 0 012 0z" stroke="currentColor" stroke-width="1.5" stroke-linecap="round" stroke-linejoin="round"/></symbol><symbol fill="none" viewBox="0 0 24 24" id="tag-icon" xmlns="http://www.w3.org/2000/svg"><path d="M8 8h.01M2 5.2v4.475c0 .489 0 .733.055.963.05.204.13.4.24.579.123.201.296.374.642.72l7.669 7.669c1.188 1.188 1.782 1.782 2.467 2.004a3 3 0 001.854 0c.685-.222 1.28-.816 2.467-2.004l2.212-2.212c1.188-1.188 1.782-1.782 2.004-2.467a3 3 0 000-1.854c-.222-.685-.816-1.28-2.004-2.467l-7.669-7.669c-.346-.346-.519-.519-.72-.642a2.001 2.001 0 00-.579-.24C10.409 2 10.165 2 9.676 2H5.2c-1.12 0-1.68 0-2.108.218a2 2 0 00-.874.874C2 3.52 2 4.08 2 5.2zM8.5 8a.5.5 0 11-1 0 .5.5 0 011 0z" stroke="currentColor" stroke-width="1.5" stroke-linecap="round" stroke-linejoin="round"/></symbol><symbol fill="none" viewBox="0 0 24 24" id="warning-icon" xmlns="http://www.w3.org/2000/svg"><circle cx="12" cy="17" r="1" fill="currentColor"/><path d="M12 9v5m-7.672 7h15.344c1.773 0 2.893-1.857 2.032-3.368L14.032 4.166c-.886-1.555-3.178-1.555-4.064 0L2.296 17.632C1.436 19.143 2.556 21 4.328 21z" stroke="currentColor" stroke-width="1.5" stroke-linecap="round" stroke-linejoin="round"/></symbol></svg>